<svg id="ejgidVNQv2a1" xmlns="http://www.w3.org/2000/svg" xmlns:xlink="http://www.w3.org/1999/xlink" viewBox="0 0 800 800" shape-rendering="geometricPrecision" text-rendering="geometricPrecision" project-id="589be0dd738b4f1caf2f77472176445f" export-id="cfeb386a63054472b64b5f38fa4230a5" cached="false"><defs><linearGradient id="ejgidVNQv2a2-fill" x1="0.347745" y1="0.769566" x2="0.726054" y2="0.697458" spreadMethod="reflect" gradientUnits="objectBoundingBox" gradientTransform="translate(0 0)"><stop id="ejgidVNQv2a2-fill-0" offset="0%" stop-color="#000"/><stop id="ejgidVNQv2a2-fill-1" offset="100%" stop-color="#822a2a"/></linearGradient><linearGradient id="ejgidVNQv2a3-fill" x1="0.031519" y1="0.272757" x2="0.935809" y2="0.400354" spreadMethod="pad" gradientUnits="objectBoundingBox" gradientTransform="translate(0 0)"><stop id="ejgidVNQv2a3-fill-0" offset="0%" stop-color="#b01b1b"/><stop id="ejgidVNQv2a3-fill-1" offset="76%" stop-color="#1b1616"/></linearGradient></defs><path d="M336.573456,74.464134c29.473816-14.767311,60.459472-20.997795,92.811432-18.577152c47.970703,3.58926,88.863769,22.695583,121.809448,58.183781c20.773804,22.377006,37.485229,47.684745,52.189087,74.20977c10.306457,18.592453,26.150757,26.630783,45.983215,29.165039c8.584961,1.097015,17.227905,1.733459,25.83313,2.682098c2.756226.303849,5.043091.786499,6.760498,3.964157c1.658814,3.069336,6.020569,1.915726,9.215271,2.422821c2.555908.405716,5.348389-.245468,7.415344,2.870789-16.409973,1.333237-32.915161.581223-50.156921,2.046371c50.424072,2.498963,100.238037-1.37326,149.669739,5.99199-7.410095,2.378128-15.033936,1.373916-22.556275,1.519546-7.995666.154801-15.99646.058823-23.994995.051376-7.831238-.007278-15.662536-.04953-23.493774-.060638-7.772644-.011017-15.545288-.00238-23.387696.437439c3.566773,2.605347,8.772278,1.275772,11.688782,5.099319-1.07605,2.455964-3.197571,1.922837-4.879516,2.003952-20.958313,1.010819-41.924317,1.861115-62.881226,2.898407-39.100708,1.935318-78.230896,2.666977-117.370361,3.112046-24.652069.280334-49.320038.18486-73.950684,1.084182-35.960449,1.313035-71.916901,1.689347-107.894714,1.691453-42.483673.002487-84.935334-1.424729-127.39122-2.491471-42.951676-1.079193-85.891175-2.806473-128.81704-4.683609-22.932266-1.002823-45.928871-1.472992-68.708542-4.767196-4.432956-.641053-8.908175-1.275284-13.083058-3.067002-1.393296-.597961-2.85635-1.311111-2.588735-3.199249.224295-1.582489,1.624101-1.898254,2.903977-2.344406c5.232534-1.824005,10.191387-.702194,15.014042,1.425247c6.957105,3.069,14.343221,3.77449,21.515634,4.622345c1.158447-1.625366-1.044674-2.389908.347531-4.189621c6.242393-1.453888,13.268711-.931366,20.151351-1.698029c2.2874-.254791,5.188218.780899,5.703537-3.096893.180275-1.356628,1.900696-1.058853,3.010224-1.153381c15.27935-1.301789,30.604271-1.405396,45.921638-1.664871c2.462571-.041703,5.017502.196197,2.924836,4.272644c6.200058,1.167648,13.167465,2.722518,17.929641.424301c18.672226-9.011185,38.890625-3.641388,57.951996-7.770066c2.595993-.562271,5.268906-.760849,7.887146-1.233383.953095-.171997,2.546707-.493026,2.666031-1.015869c1.217346-5.333343,6.441238-5.719467,9.891739-8.235947c5.394958-3.934585,9.335495-9.047699,12.110123-15.015289c6.738143-14.492126,13.223648-29.101974,19.990249-43.580582c15.303238-32.744583,39.447495-57.381691,70.131394-75.933288c3.701202-2.23774,7.594757-4.157257,11.727722-6.401131m14.937988,162.397423c44.434692-.333206,88.869324-.672699,133.304077-.995926c13.986389-.10173,27.973297-.137253,41.959564-.255539c3.050049-.025787,6.36377.086441,5.853638-4.600784-.754822-6.936127-1.381531-13.848557-3.564331-20.585236-5.437744-16.782226-14.435852-31.442978-26.259796-44.346588-26.938904-29.398819-60.307373-43.251129-99.65625-35.043808-40.259064,8.397156-66.621063,34.283188-80.121216,73.190704-2.973022,8.568299-2.877472,17.637772-4.898834,26.33841-1.409302,6.066101-.913269,7.011108,5.445709,6.968384c8.982178-.060364,17.96228-.426194,27.937439-.669617M467.477386,126.083092c-34.062133-14.459931-68.114501-15.384415-101.970794.497787-18.601654,8.726158-35.189087,20.410301-47.907105,36.720619-11.078094,14.207184-17.552398,30.861512-23.321655,47.78122-1.769257,5.188675-3.911468,10.255096-6.011261,15.324341-1.241974,2.998352-2.704987,4.216919-6.445129,2.325271-5.597718-2.831161-6.355927-7.690735-7.161377-12.79338-.449036-2.844712.04013-5.901383-2.501007-9.319855-7.037751,13.500839-14.865631,25.497253-31.937577,26.197876c1.540497,2.014694,2.959641,1.750885,4.225251,1.847534c18.625137,1.422424,37.260818.745865,55.888748.130188c6.655945-.220001,8.717865-1.850601,10.477813-8.518051c1.602997-6.072739,2.492432-12.32991,3.868195-18.467285c3.856476-17.204224,11.448456-32.597534,23.05249-45.876679c19.024903-21.771225,43.533875-33.517608,71.671753-38.046112c17.834473-2.870285,35.61612-2.264465,52.520203,4.815155c20.323578,8.511719,37.288879,21.71698,51.397125,38.618988c1.058289,1.267899,1.830261,3.105179,5.031677,2.696335-12.845733-19.815445-29.815277-33.657394-50.87735-43.933952m87.89444,24.106361c5.127136,7.176514,8.866516,15.217606,14.028443,22.375977-3.936341-12.5672-9.954834-23.858017-19.427613-33.036042-.355468.215104-.710937.430207-1.066345.64531c2.019043,3.140442,4.038086,6.280884,6.465515,10.014755M430.888214,80.750725c.804382-.206932,1.985382.583175,2.545929-1.229775-9.689636-.666748-19.134247-.759445-28.559509.681671c8.429718.158982,16.86499-.987823,26.01358.548104Z" transform="matrix(0.945608 -0.7388 0.7388 0.945608 -158.664687 481.283511)" fill="url(#ejgidVNQv2a2-fill)"/><path d="M481.472961,327.461487c17.157959-11.161469,30.124299-25.639893,39.399109-43.453949.692383-1.329743,1.323426-2.693176,2.057312-3.999176.713257-1.269257,1.305664-3.032562,3.292847-2.090393c1.898682.900238,1.924438,2.606994,1.13501,4.276336-1.779053,3.762268-3.658631,7.476929-5.486206,11.21637-.412598.844299-.779969,1.710785-1.394898,3.066925c3.335144-.115417,6.509461-3.514252,8.723145.72583c2.743469-.964111,4.496948-3.836212,7.931946-2.267792c1.776001.810944,2.648498-1.672973,3.244934-3.125335c4.42749-10.781372,12.71698-19.693787,14.623108-31.754151c3.588317,1.109253,6.598999,1.94516,9.537841,2.98407c1.750061.618683,3.581299,1.595459,3.122376,3.871979-.395874,1.963379-2.011597,2.976746-3.962402,3.323395-2.142762.380645-5.609131-.651551-5.553528,2.607544.05664,3.319183,3.805114,2.247436,5.967224,2.952606c1.567261.51123,3.270325.604095,4.911438.891388c7.98352,1.397613,9.373535,3.659851,7.172119,11.625641-4.198181,15.190948-10.708557,29.413665-18.461609,43.05661-19.416504,34.166748-49.131287,55.991821-85.180176,69.772064-21.087219,8.060883-43.187988,11.485535-65.699249,10.04068-54.843658-3.52002-98.518921-27.838471-131.18338-71.988464-8.480011-11.461762-15.468292-23.616394-18.666657-37.757264-1.151275-5.090088-1.35849-10.213501-1.932998-15.318695-.464905-4.131042.795486-7.284576,6.059585-6.611236c1.450074.185516,2.986267-.416199,4.468323-.346405c4.886414.230255,6.462738-1.660889,5.352661-6.618103-.945892-4.223908.828308-5.480225,5.050171-4.431336c3.785065.940369,6.514526,3.201477,8.362549,6.607361.714325,1.316498,1.502777,2.594727,2.296722,3.865875c4.115204,6.588501,3.671631,5.347138,10.040741,2.343964.837311-.394806,1.450409-1.265106,2.154389-1.903381c2.645355.866821,3.538604,3.116485,4.81485,5.007782c7.816284,11.58319,14.450225,24.027862,24.272216,34.161377c26.141266,26.970336,57.800721,40.221191,95.566651,38.236877c26.509063-1.392853,49.798553-10.860138,70.170746-27.72525c1.273895-1.054596,2.354705-2.349823,3.471588-3.581879.299621-.330536.400818-.840973,1.140045-2.485596-3.947083,2.517578-6.972931,4.342102-9.891205,6.324952-36.607666,24.873138-75.112823,26.946075-114.650513,8.382476-22.711029-10.663238-39.437866-28.100494-50.705017-50.619018-.297973-.595581-.551147-1.21344-.83377-1.816864-.861969-1.840271-1.171967-3.571839,1.137939-4.590241c2.137268-.942291,3.046448.598419,3.855682,2.098419c3.478913,6.448884,6.854035,12.956452,11.381928,18.770478c21.806457,28.000396,49.887176,42.977356,85.935577,42.909729c20.676972-.038819,39.268677-5.779328,56.950836-16.6362Z" transform="matrix(0.969289 -0.707445 0.707445 0.969289 -148.17916 470.13134)" fill="url(#ejgidVNQv2a3-fill)"/></svg>
