<svg id="el0N2irtERV1" xmlns="http://www.w3.org/2000/svg" xmlns:xlink="http://www.w3.org/1999/xlink" viewBox="0 0 300 300" shape-rendering="geometricPrecision" text-rendering="geometricPrecision" project-id="0a82ee51303a4565820f2c82af9ea77c" export-id="b5372e5500454d8baeafe3adb8ce713c" cached="false"><rect width="240.071435" height="113.81625" rx="30" ry="30" transform="translate(31.59324 87.060938)" fill="none" stroke="#FFF" stroke-width="6" stroke-linecap="square" stroke-linejoin="round"/><line x1="0" y1="-89.871302" x2="0" y2="89.871302" transform="translate(203.250535 148.944637)" fill="none" stroke="#FFF" stroke-width="10"/><line x1="-27.054683" y1="0" x2="27.054682" y2="0" transform="matrix(1.298854 0 0 1 202.939562 59.695281)" fill="none" stroke="#FFF" stroke-width="10"/><line x1="-27.054683" y1="0" x2="27.054682" y2="0" transform="matrix(1.298854 0 0 1 203.250535 234.431215)" fill="none" stroke="#FFF" stroke-width="10"/><line x1="-27.054683" y1="0" x2="27.054682" y2="0" transform="matrix(0.607245 -1.440637 -0.921484 -0.388416 88.728806 146.114779)" fill="none" stroke="#FFF" stroke-width="10" stroke-linecap="round" stroke-linejoin="round"/><line x1="-27.054683" y1="0" x2="27.054682" y2="0" transform="matrix(0.648448 1.422567 0.909926 -0.414771 126.667558 146.114781)" fill="none" stroke="#FFF" stroke-width="10" stroke-linecap="round" stroke-linejoin="round"/><line x1="-27.054683" y1="0" x2="27.054682" y2="0" transform="matrix(0.776115 0.004176 0.005381 -0.999986 106.742059 153.940447)" fill="none" stroke="#FFF" stroke-width="10" stroke-linecap="round" stroke-linejoin="round"/></svg>
