<svg id="eFfSIKiDk6M1" xmlns="http://www.w3.org/2000/svg" xmlns:xlink="http://www.w3.org/1999/xlink" viewBox="0 0 300 300" shape-rendering="geometricPrecision" text-rendering="geometricPrecision" project-id="0a82ee51303a4565820f2c82af9ea77c" export-id="179c6c90d2044b41b30583e61ed3d1e3" cached="false"><rect width="240.071435" height="113.81625" rx="30" ry="30" transform="matrix(0.757444 0 0 1 60.708623 87.060938)" fill="none" stroke="#fff" stroke-width="15" stroke-linecap="square" stroke-linejoin="round"/><line x1="0" y1="-89.871302" x2="0" y2="89.871302" transform="matrix(-1 0 0 0.873314 203.250535 148.944637)" fill="none" stroke="#fff" stroke-width="15"/><line x1="-27.054683" y1="0" x2="27.054682" y2="0" transform="matrix(1.298854 0 0 1 202.939562 67.720262)" fill="none" stroke="#fff" stroke-width="15"/><line x1="-27.054683" y1="0" x2="27.054682" y2="0" transform="matrix(1.298854 0 0 1 203.867841 222.702398)" fill="none" stroke="#fff" stroke-width="15"/><line x1="-27.054683" y1="0" x2="27.054682" y2="0" transform="matrix(0.567297 -1.345864 0.921484 0.388416 110.951829 144.26286)" fill="none" stroke="#fff" stroke-width="15" stroke-linecap="round" stroke-linejoin="round"/><line x1="-27.054683" y1="0" x2="27.054682" y2="0" transform="matrix(0.609645 1.337442 0.909926 -0.414771 148.890581 144.262862)" fill="none" stroke="#fff" stroke-width="15" stroke-linecap="round" stroke-linejoin="round"/><line x1="-27.054683" y1="0" x2="27.054682" y2="0" transform="matrix(0.776115 0.004176 0.005381 -0.999986 128.965082 152.088528)" fill="none" stroke="#fff" stroke-width="15" stroke-linecap="round" stroke-linejoin="round"/></svg>
